{
  "accessors": [
    {
      "bufferView": 2,
      "componentType": 5126,
      "count": 2824,
      "max": [
        7.0354099273681641,
        7.0344400405883789,
        2.3665900230407715
      ],
      "min": [
        -7.0338401794433594,
        -7.0344400405883789,
        -2.3665900230407715
      ],
      "type": "VEC3"
    },
    {
      "bufferView": 2,
      "byteOffset": 33888,
      "componentType": 5126,
      "count": 2824,
      "max": [
        1,
        0.99999970197677612,
        0.9999966025352478
      ],
      "min": [
        -1,
        -0.99999970197677612,
        -0.9999966025352478
      ],
      "type": "VEC3"
    },
    {
      "bufferView": 3,
      "componentType": 5126,
      "count": 2824,
      "max": [
        0.92517828941345215,
        0.89594101905822754,
        1,
        1
      ],
      "min": [
        -0.99999797344207764,
        -0.87391197681427002,
        -1,
        1
      ],
      "type": "VEC4"
    },
    {
      "bufferView": 1,
      "componentType": 5126,
      "count": 2824,
      "max": [
        0.99813002347946167,
        0.99664002656936646
      ],
      "min": [
        0.00036999999429099262,
        0
      ],
      "type": "VEC2"
    },
    {
      "bufferView": 0,
      "componentType": 5125,
      "count": 14976,
      "max": [
        2823
      ],
      "min": [
        0
      ],
      "type": "SCALAR"
    },
    {
      "bufferView": 2,
      "byteOffset": 67776,
      "componentType": 5126,
      "count": 10094,
      "max": [
        7.2090601921081543,
        7.197080135345459,
        2.5049099922180176
      ],
      "min": [
        -7.0812101364135742,
        -7.0876498222351074,
        -0.42537000775337219
      ],
      "type": "VEC3"
    },
    {
      "bufferView": 2,
      "byteOffset": 188904,
      "componentType": 5126,
      "count": 10094,
      "max": [
        0.99948406219482422,
        0.99988645315170288,
        0.99997037649154663
      ],
      "min": [
        -0.99752438068389893,
        -0.99871265888214111,
        -0.99997216463088989
      ],
      "type": "VEC3"
    },
    {
      "bufferView": 3,
      "byteOffset": 45184,
      "componentType": 5126,
      "count": 10094,
      "max": [
        0.99716734886169434,
        0.93755233287811279,
        0.9986380934715271,
        1
      ],
      "min": [
        -0.99999791383743286,
        -0.97343456745147705,
        -0.99996316432952881,
        -1
      ],
      "type": "VEC4"
    },
    {
      "bufferView": 0,
      "byteOffset": 59904,
      "componentType": 5125,
      "count": 56424,
      "max": [
        10093
      ],
      "min": [
        0
      ],
      "type": "SCALAR"
    }
  ],
  "asset": {
    "extras": {
      "author": "DanTCM3 (https://sketchfab.com/DanTCM3)",
      "license": "CC-BY-4.0 (http://creativecommons.org/licenses/by/4.0/)",
      "source": "https://sketchfab.com/models/cc04bbfdb69d439e8f211c25ceedb796",
      "title": "Doughnut"
    },
    "generator": "Sketchfab-3.22.5",
    "version": "2.0"
  },
  "bufferViews": [
    {
      "buffer": 0,
      "byteLength": 285600,
      "byteOffset": 0,
      "name": "floatBufferViews",
      "target": 34963
    },
    {
      "buffer": 0,
      "byteLength": 22592,
      "byteOffset": 285600,
      "byteStride": 8,
      "name": "floatBufferViews",
      "target": 34962
    },
    {
      "buffer": 0,
      "byteLength": 310032,
      "byteOffset": 308192,
      "byteStride": 12,
      "name": "floatBufferViews",
      "target": 34962
    },
    {
      "buffer": 0,
      "byteLength": 206688,
      "byteOffset": 618224,
      "byteStride": 16,
      "name": "floatBufferViews",
      "target": 34962
    }
  ],
  "buffers": [
    {
      "byteLength": 824912,
      "uri": "scene.bin"
    }
  ],
  "extensionsRequired": [
    "KHR_materials_pbrSpecularGlossiness"
  ],
  "extensionsUsed": [
    "KHR_materials_pbrSpecularGlossiness"
  ],
  "images": [
    {
      "uri": "textures/Cake_diffuse.png"
    }
  ],
  "materials": [
    {
      "doubleSided": true,
      "emissiveFactor": [
        0,
        0,
        0
      ],
      "extensions": {
        "KHR_materials_pbrSpecularGlossiness": {
          "diffuseFactor": [
            0.42854420729999998,
            0.42854420729999998,
            0.42854420729999998,
            1
          ],
          "glossinessFactor": 0.42244664630000001,
          "specularFactor": [
            0.2452749055921532,
            0.024591117774380084,
            0.06967756309727173
          ]
        }
      },
      "name": "icing"
    },
    {
      "doubleSided": true,
      "emissiveFactor": [
        0,
        0,
        0
      ],
      "extensions": {
        "KHR_materials_pbrSpecularGlossiness": {
          "diffuseFactor": [
            1,
            1,
            1,
            1
          ],
          "diffuseTexture": {
            "index": 0,
            "texCoord": 0
          },
          "glossinessFactor": 0,
          "specularFactor": [
            0,
            0,
            0
          ]
        }
      },
      "name": "Cake"
    }
  ],
  "meshes": [
    {
      "name": "Torus_0",
      "primitives": [
        {
          "attributes": {
            "NORMAL": 1,
            "POSITION": 0,
            "TANGENT": 2,
            "TEXCOORD_0": 3
          },
          "indices": 4,
          "material": 1,
          "mode": 4
        }
      ]
    },
    {
      "name": "Torus.001_0",
      "primitives": [
        {
          "attributes": {
            "NORMAL": 6,
            "POSITION": 5,
            "TANGENT": 7
          },
          "indices": 8,
          "material": 0,
          "mode": 4
        }
      ]
    }
  ],
  "nodes": [
    {
      "children": [
        1
      ],
      "name": "RootNode (gltf orientation matrix)",
      "rotation": [
        -0.70710678118654746,
        -0,
        -0,
        0.70710678118654757
      ]
    },
    {
      "children": [
        2
      ],
      "name": "RootNode (model correction matrix)"
    },
    {
      "children": [
        3,
        5,
        7
      ],
      "name": "Root"
    },
    {
      "children": [
        4
      ],
      "name": "Torus"
    },
    {
      "mesh": 0,
      "name": "Torus_0"
    },
    {
      "children": [
        6
      ],
      "name": "Torus.001"
    },
    {
      "mesh": 1,
      "name": "Torus.001_0"
    },
    {
      "children": [
        8
      ],
      "name": "Sun"
    },
    {
      "name": "Sun"
    }
  ],
  "samplers": [
    {
      "magFilter": 9729,
      "minFilter": 9987,
      "wrapS": 10497,
      "wrapT": 10497
    }
  ],
  "scene": 0,
  "scenes": [
    {
      "name": "OSG_Scene",
      "nodes": [
        0
      ]
    }
  ],
  "textures": [
    {
      "sampler": 0,
      "source": 0
    }
  ]
}

